<?xml version="1.0" encoding="iso-8859-1"?>
<!-- Generator: Adobe Illustrator 16.0.0, SVG Export Plug-In . SVG Version: 6.00 Build 0)  -->
<!DOCTYPE svg PUBLIC "-//W3C//DTD SVG 1.1//EN" "http://www.w3.org/Graphics/SVG/1.1/DTD/svg11.dtd">
<svg version="1.1" id="Capa_1" xmlns="http://www.w3.org/2000/svg" xmlns:xlink="http://www.w3.org/1999/xlink" x="0px" y="0px"
	 width="107.986px" height="107.987px" viewBox="0 0 107.986 107.987" style="enable-background:new 0 0 107.986 107.987;"
	 xml:space="preserve">
<g>
	<g>
		<path d="M5.632,61.491H0.75V43.27h4.882V61.491z M10.318,54.463c1.504,1.65,3.794,2.896,6.197,2.896
			c2.254,0,3.833-1.396,3.833-3.308c0-3.379-4.883-3.792-8.414-5.856c-2.065-1.204-3.721-3.006-3.721-5.977
			c0-4.694,4.322-7.398,8.679-7.398c2.667,0,5.146,0.639,7.625,2.479l-2.629,3.754c-1.056-0.977-2.819-1.726-4.548-1.726
			c-1.913,0-4.057,0.824-4.057,2.853c0,4.246,12.134,2.929,12.134,11.797c0,4.652-4.172,7.886-8.903,7.886
			c-3.53,0-6.798-1.463-9.503-3.943L10.318,54.463z M40.586,61.491c-0.638,0.225-2.104,0.373-3.043,0.373
			c-2.932,0-5.068-0.979-6.312-2.629c-0.938-1.238-1.353-2.855-1.353-5.447v-6.387h-5.069V43.27h5.069v-5.071h4.884v5.071h6.012
			v4.132h-6.012v6.946c0,1.131,0.188,1.806,0.602,2.295c0.486,0.562,1.275,0.896,2.479,0.896c0.715,0,1.655-0.105,1.993-0.188
			L40.586,61.491z M51.417,42.894c5.521,0,9.69,4.246,9.69,9.505c0,5.258-4.172,9.465-9.69,9.465c-5.521,0-9.69-4.207-9.69-9.465
			C41.724,47.14,45.896,42.894,51.417,42.894z M51.417,57.358c2.854,0,4.808-2.217,4.808-4.957c0-2.743-1.951-4.997-4.808-4.997
			s-4.808,2.254-4.808,4.997C46.609,55.141,48.56,57.358,51.417,57.358z M80.391,57.77c-2.146,2.854-4.854,4.095-8.27,4.095
			c-5.633,0-9.77-4.205-9.77-9.464c0-5.296,4.244-9.505,9.809-9.505c3.152,0,5.975,1.467,7.662,3.644l-3.457,3.043
			c-0.977-1.277-2.438-2.179-4.205-2.179c-2.814,0-4.922,2.218-4.922,4.997c0,2.854,2.064,4.957,5.033,4.957
			c1.988,0,3.566-1.202,4.354-2.403L80.391,57.77z M91.373,51.458l10.031,10.033H94.83l-7.703-7.893v7.893h-4.881V35.195h4.881
			v13.975l6.273-5.9h6.877L91.373,51.458z M0,38.011c0-1.763,1.432-3.192,3.193-3.192c1.764,0,3.192,1.429,3.192,3.192
			c0,1.762-1.43,3.193-3.192,3.193C1.431,41.205,0,39.772,0,38.011z M101.609,58.67c0-1.762,1.43-3.188,3.189-3.188
			c1.766,0,3.188,1.43,3.188,3.188c0,1.766-1.43,3.193-3.188,3.193C103.039,61.864,101.609,60.434,101.609,58.67z"/>
		<path d="M29.843,70.645h0.697v-4.844h-0.708v-0.742h1.52v2.154c0.477-0.508,1.027-0.75,1.709-0.75
			c1.445,0,2.479,1.105,2.479,2.521c0,1.428-1.057,2.521-2.508,2.521c-0.652,0-1.162-0.229-1.668-0.741v0.642h-1.521V70.645
			L29.843,70.645z M33.017,67.25c-0.896,0-1.666,0.742-1.666,1.762c0,0.955,0.77,1.715,1.653,1.715c0.901,0,1.67-0.725,1.67-1.76
			C34.675,67.963,33.908,67.25,33.017,67.25z M36.59,72.202h0.752l0.375-0.939l-1.556-3.92h-0.634v-0.758h2.143v0.758h-0.66
			l1.125,2.863l1.133-2.863H38.61v-0.758h2.134v0.758h-0.625l-1.931,4.859h0.668v0.756H36.59V72.202z M45.765,68.225h3.854v3.183
			h-0.687v-1.002c-0.697,0.761-1.494,1.127-2.453,1.127c-1.9,0-3.252-1.485-3.252-3.345c0-1.715,1.377-3.26,3.336-3.26
			c0.73,0,1.314,0.205,1.933,0.66v-0.529h0.692v1.697h-0.782c-0.546-0.633-1.142-0.938-1.892-0.938c-1.355,0-2.356,1.1-2.356,2.395
			c0,1.396,1.036,2.439,2.348,2.439c0.983,0,1.867-0.65,2.161-1.662h-2.9v-0.768h-0.002V68.225z M55.242,69.877
			c-0.411,1.053-1.295,1.643-2.354,1.643c-1.412,0-2.521-1.112-2.521-2.52c0-1.436,1.169-2.547,2.491-2.547
			c1.408,0,2.533,1.1,2.533,2.582c0,0.072,0,0.162-0.018,0.277h-4.125c0.135,0.854,0.816,1.42,1.624,1.42
			c0.608,0,1.125-0.295,1.42-0.855H55.242z M54.501,68.627c-0.217-0.895-0.821-1.4-1.614-1.4c-0.805,0-1.479,0.545-1.637,1.4H54.501
			z M56.393,67.329H55.65v-0.746h0.742v-1.521h0.812v1.521h0.713v0.746h-0.713v3.316h0.713v0.76h-1.522L56.393,67.329L56.393,67.329
			z M59.096,67.329h-0.74v-0.746h0.74v-1.521h0.812v1.521h0.709v0.746h-0.709v3.316h0.709v0.76h-1.521V67.329z M62.162,72.202h0.752
			l0.377-0.939l-1.557-3.92h-0.633v-0.758h2.143v0.758h-0.662l1.123,2.863l1.141-2.863h-0.664v-0.758h2.141v0.758h-0.628
			l-1.935,4.859h0.674v0.756h-2.271L62.162,72.202L62.162,72.202z M68.76,70.635h0.705v-4.812H68.76v-0.765h2.312v0.765h-0.727
			v4.812h0.727v0.771H68.76V70.635z M71.75,70.645h0.688v-3.312h-0.68v-0.746h1.482v0.686c0.297-0.52,0.715-0.766,1.312-0.766
			c0.705,0,1.219,0.338,1.514,0.961c0.375-0.658,0.835-0.969,1.484-0.969c1.188,0,1.729,0.862,1.729,2.059v2.093h0.695v0.761h-2.195
			V70.65h0.688v-2.138c0-0.812-0.375-1.248-1.043-1.248c-0.771,0-1.18,0.57-1.18,1.707v1.679h0.697v0.761h-2.184V70.65h0.694v-1.601
			c0-1.133-0.125-1.785-1.069-1.785c-0.729,0-1.15,0.57-1.15,1.707v1.679h0.697v0.761h-2.188v-0.764L71.75,70.645L71.75,70.645z
			 M84.404,70.766c-0.508,0.517-1.021,0.742-1.662,0.742c-1.463,0-2.508-1.1-2.508-2.521c0-1.414,1.008-2.516,2.475-2.516
			c0.688,0,1.236,0.229,1.717,0.741v-0.635h1.486v0.746h-0.686v3.31h0.688v0.771h-1.519L84.404,70.766L84.404,70.766z M82.754,67.25
			c-0.893,0-1.662,0.715-1.662,1.717c0,1.035,0.771,1.76,1.668,1.76c0.883,0,1.65-0.754,1.65-1.715
			C84.412,67.993,83.641,67.25,82.754,67.25z M87.543,71.688c0.172,0.515,0.625,0.785,1.305,0.785c0.859,0,1.582-0.617,1.617-1.51
			l0.008-0.238c-0.479,0.533-1.012,0.771-1.678,0.771c-1.428,0-2.48-1.08-2.48-2.518c0-1.385,1.021-2.518,2.455-2.518
			c0.691,0,1.248,0.248,1.717,0.793v-0.679h1.486v0.759h-0.688v3.271c0,1.652-0.957,2.562-2.438,2.562
			c-1.174,0-1.938-0.5-2.248-1.487h0.938v0.004h0.003L87.543,71.688L87.543,71.688z M90.48,69.02c0-1.021-0.76-1.771-1.652-1.771
			c-0.891,0-1.658,0.727-1.658,1.729c0,1.045,0.775,1.76,1.658,1.76S90.48,69.973,90.48,69.02z M97.148,69.877
			c-0.41,1.053-1.293,1.643-2.357,1.643c-1.408,0-2.521-1.112-2.521-2.52c0-1.436,1.176-2.547,2.496-2.547
			c1.41,0,2.535,1.1,2.535,2.582c0,0.072,0,0.162-0.018,0.277h-4.129c0.137,0.854,0.812,1.42,1.627,1.42
			c0.607,0,1.125-0.295,1.418-0.855H97.148z M96.408,68.627c-0.213-0.895-0.822-1.4-1.617-1.4c-0.803,0-1.473,0.545-1.635,1.4
			H96.408z M97.797,69.883h0.807c0,0.469,0.398,0.937,0.998,0.937c0.51,0,0.81-0.271,0.81-0.735c0-0.517-0.39-0.703-1.231-0.875
			c-1.078-0.22-1.312-0.779-1.312-1.363c0-0.805,0.566-1.396,1.479-1.396c0.396,0,0.705,0.138,0.965,0.42v-0.293h0.668v1.283h-0.74
			c-0.111-0.478-0.383-0.688-0.84-0.688c-0.441,0-0.693,0.225-0.693,0.602c0,0.533,0.438,0.638,1.188,0.828
			c0.938,0.252,1.373,0.646,1.373,1.433c0,0.897-0.627,1.502-1.623,1.502c-0.457,0-0.803-0.146-1.104-0.479v0.356h-0.73v-1.524
			h-0.008v-0.004h-0.004V69.883z"/>
		<path d="M103.836,64.961v0.412h-0.635v1.99h-0.463v-1.99h-0.637v-0.412H103.836z"/>
		<path d="M105.402,66.399l0.875-1.438h0.326v2.403h-0.463v-1.342l-0.578,0.943h-0.322l-0.576-0.943v1.342h-0.463V64.96h0.326
			L105.402,66.399z"/>
	</g>
</g>
<g>
</g>
<g>
</g>
<g>
</g>
<g>
</g>
<g>
</g>
<g>
</g>
<g>
</g>
<g>
</g>
<g>
</g>
<g>
</g>
<g>
</g>
<g>
</g>
<g>
</g>
<g>
</g>
<g>
</g>
</svg>
