<?xml version="1.0" encoding="iso-8859-1"?>
<!-- Generator: Adobe Illustrator 19.0.0, SVG Export Plug-In . SVG Version: 6.00 Build 0)  -->
<svg version="1.1" id="Layer_1" xmlns="http://www.w3.org/2000/svg" xmlns:xlink="http://www.w3.org/1999/xlink" x="0px" y="0px"
	 viewBox="0 0 495 495" style="enable-background:new 0 0 495 495;" xml:space="preserve">
<g>
	<polygon style="fill:#1D1D1F;" points="247.5,0 247.5,40 455,40 455,455 247.5,455 247.5,495 495,495 495,0 	"/>
	<polygon style="fill:#3E3D42;" points="40,455 40,40 247.5,40 247.5,0 0,0 0,495 247.5,495 247.5,455 	"/>
	<path style="fill:#3E3D42;" d="M93.479,141.619h9.181c3.514,0,6.685,2.106,8.049,5.345L202.3,364.958l47.86-100.408l44.731,100.408
		l88.815-217.909c1.338-3.289,4.535-5.439,8.081-5.439h9.736c1.918,0,3.477-1.552,3.477-3.47v-8.099h-66.939v8.099
		c0,1.918,1.56,3.479,3.479,3.479h15.473c4.893,0,8.269,4.902,6.53,9.472l-62.589,161.542l-35.772-84.058l38.312-81.925
		c1.432-3.068,4.518-5.03,7.903-5.03h10.358c1.927,0,3.479-1.56,3.479-3.479v-8.099h-62.242v8.099c0,1.918,1.552,3.479,3.479,3.479
		h9.284c5.046,0,8.422,5.174,6.401,9.788l-24.799,56.52l-24.288-56.572c-1.977-4.611,1.408-9.745,6.421-9.745
		c1.916,0,3.477-1.552,3.477-3.47v-8.099h-59.436v8.099c0,1.918,1.56,3.47,3.479,3.47h6.392c3.505,0,6.659,2.097,8.031,5.312
		l41.099,96.434l-32.522,70.485l-64.305-162.675c-1.807-4.577,1.569-9.548,6.495-9.548h13.249c1.883,0,3.426-1.499,3.477-3.385
		l0.223-8.193H90v8.099C90,140.059,91.56,141.619,93.479,141.619z"/>
</g>
<g>
</g>
<g>
</g>
<g>
</g>
<g>
</g>
<g>
</g>
<g>
</g>
<g>
</g>
<g>
</g>
<g>
</g>
<g>
</g>
<g>
</g>
<g>
</g>
<g>
</g>
<g>
</g>
<g>
</g>
</svg>
